<svg width="22" height="23" viewBox="0 0 22 23" fill="none" xmlns="http://www.w3.org/2000/svg">
<path fill-rule="evenodd" clip-rule="evenodd" d="M6.875 0.844971H15.125C18.9214 0.844971 22 3.9236 22 7.71997V15.97C22 19.7663 18.9214 22.845 15.125 22.845H6.875C3.07862 22.845 0 19.7663 0 15.97V7.71997C0 3.9236 3.07862 0.844971 6.875 0.844971ZM15.125 20.7825C17.7787 20.7825 19.9375 18.6237 19.9375 15.97V7.71997C19.9375 5.06622 17.7787 2.90747 15.125 2.90747H6.875C4.22125 2.90747 2.0625 5.06622 2.0625 7.71997V15.97C2.0625 18.6237 4.22125 20.7825 6.875 20.7825H15.125Z" fill="white"/>
<path fill-rule="evenodd" clip-rule="evenodd" d="M5.5 11.845C5.5 8.8076 7.96263 6.34497 11 6.34497C14.0374 6.34497 16.5 8.8076 16.5 11.845C16.5 14.8823 14.0374 17.345 11 17.345C7.96263 17.345 5.5 14.8823 5.5 11.845ZM7.5625 11.845C7.5625 13.7397 9.10525 15.2825 11 15.2825C12.8948 15.2825 14.4375 13.7397 14.4375 11.845C14.4375 9.94885 12.8948 8.40747 11 8.40747C9.10525 8.40747 7.5625 9.94885 7.5625 11.845Z" fill="white"/>
<circle cx="16.9126" cy="5.93246" r="0.732875" fill="white"/>
</svg>
