<svg width="188" height="40" viewBox="0 0 188 40" fill="none" xmlns="http://www.w3.org/2000/svg">
<rect x="78.0744" width="61.7603" height="32.4638" rx="16.2319" fill="white"/>
<path fill-rule="evenodd" clip-rule="evenodd" d="M94.3107 32.3865C85.2992 32.3865 78.0355 25.1208 78.0355 16.1932C78.0355 7.2657 85.338 0 94.3107 0H123.637C132.649 0 139.912 7.2657 139.912 16.1932C139.912 25.1208 132.61 32.3865 123.637 32.3865H94.3107ZM94.3107 3.20773C101.497 3.20773 107.323 9.00483 107.323 16.1546C107.323 16.6957 107.284 17.2367 107.207 17.7778H103.944H98.5058H84.6777C85.4545 22.3768 89.4554 25.8937 94.3107 25.8937C96.9909 25.8937 99.438 24.8116 101.225 23.0338L103.517 25.314C101.147 27.6715 97.8843 29.1015 94.3107 29.1015C87.1248 29.1015 81.2983 23.3044 81.2983 16.1546C81.2983 9.00483 87.1248 3.20773 94.3107 3.20773ZM84.6777 14.5314H103.944C103.167 9.93237 99.1661 6.41546 94.3107 6.41546C89.4554 6.41546 85.4545 9.93237 84.6777 14.5314ZM114.431 6.99517C119.52 1.93236 127.755 1.93236 132.843 6.99517C133.231 7.38164 133.581 7.80676 133.931 8.19324L131.6 10.5121L127.755 14.3382L117.966 24.0773C121.773 26.7826 127.133 26.4348 130.551 23.0338C132.455 21.1401 133.426 18.628 133.426 16.1546H136.688C136.688 19.4783 135.407 22.8019 132.882 25.314C127.793 30.3768 119.559 30.3768 114.47 25.314C109.343 20.2512 109.343 12.058 114.431 6.99517ZM115.674 21.7971L129.308 8.23189C125.502 5.52657 120.141 5.87439 116.723 9.27536C113.305 12.715 112.955 18.0097 115.674 21.7971Z" fill="#228BCF"/>
<path fill-rule="evenodd" clip-rule="evenodd" d="M142.593 2.78259H145.273C146.749 2.78259 147.953 3.98066 147.953 5.44926V29.5652H142.554V2.78259H142.593ZM158.751 2.78259H164.15L156.071 18.8599L164.15 29.5652H158.751L150.672 18.8599L158.751 2.78259Z" fill="white"/>
<path fill-rule="evenodd" clip-rule="evenodd" d="M32.2785 2.78259C39.6975 2.78259 45.7181 8.77293 45.7181 16.1546C45.7181 23.5362 39.6975 29.5266 32.2785 29.5266C24.8595 29.5266 18.8388 23.5362 18.8388 16.1546C18.8388 8.77293 24.8595 2.78259 32.2785 2.78259ZM32.2785 8.11592C36.7454 8.11592 40.3578 11.7101 40.3578 16.1546C40.3578 20.599 36.7454 24.1932 32.2785 24.1932C27.8115 24.1932 24.1991 20.599 24.1991 16.1546C24.1991 11.7101 27.8115 8.11592 32.2785 8.11592Z" fill="white"/>
<path fill-rule="evenodd" clip-rule="evenodd" d="M61.8769 2.78259C65.6058 2.78259 68.9463 4.28984 71.3934 6.68598L67.5868 10.4734C66.1107 9.00481 64.0909 8.11592 61.8769 8.11592C57.4099 8.11592 53.7975 11.7101 53.7975 16.1546C53.7975 20.599 57.4099 24.1932 61.8769 24.1932C65.3727 24.1932 68.3636 21.9517 69.4901 18.8212H61.8769C60.4008 18.8212 59.1967 17.6232 59.1967 16.1546V13.4879H69.4901H72.6364H75.0446C75.2388 14.3382 75.3165 15.2657 75.3165 16.1546C75.3165 23.5362 69.2959 29.5266 61.8769 29.5266C54.4579 29.5266 48.4372 23.5362 48.4372 16.1546C48.4372 8.77293 54.4579 2.78259 61.8769 2.78259Z" fill="white"/>
<path fill-rule="evenodd" clip-rule="evenodd" d="M16.1198 24.1932H5.36033V5.44926C5.36033 3.98066 4.1562 2.78259 2.68017 2.78259H0V24.1932V29.5652H5.39918H13.4397C14.9157 29.5652 16.1198 28.3671 16.1198 26.8985V24.1932Z" fill="white"/>
<path fill-rule="evenodd" clip-rule="evenodd" d="M182.601 29.5652H188L179.921 2.78259H174.521L166.442 29.5652H169.122C170.598 29.5652 172.152 28.3671 172.618 26.8985L173.434 24.2319H180.969L182.601 29.5652ZM175.065 18.8599L177.24 11.7101L179.377 18.8599H175.065Z" fill="white"/>
<path d="M5.6322 38.4156C5.6322 37.5267 4.85535 36.831 4.03965 36.831H1.63138C1.20411 36.831 0.815678 36.4832 0.815678 36.0194C0.815678 35.5557 1.16527 35.2078 1.63138 35.2078H4.03965C4.46692 35.2078 4.85534 35.5557 4.85534 36.0194H5.67105C5.63221 35.1305 4.93303 34.4349 4.07849 34.4349H1.67022C0.776834 34.4349 0.0776637 35.1692 0.0776637 36.0194C0.0776637 36.9083 0.815677 37.604 1.67022 37.604H4.07849C4.50576 37.604 4.89419 37.9518 4.89419 38.4156C4.89419 38.8407 4.5446 39.2272 4.07849 39.2272H1.67022C1.24295 39.2272 0.854523 38.8793 0.854523 38.4156H0.0388184C0.0776613 39.3045 0.776837 40.0001 1.63138 40.0001H4.03965C4.93303 40.0001 5.6322 39.2272 5.6322 38.4156ZM11.2256 34.4349C10.3322 34.4735 9.63303 35.1692 9.63303 36.0194V38.4156C9.63303 39.3045 10.3711 40.0001 11.2256 40.0001H13.6339C14.5272 40.0001 15.2264 39.2658 15.2264 38.4156H14.4107C14.4107 38.8407 14.0611 39.2272 13.595 39.2272H11.1868C10.7595 39.2272 10.3711 38.8793 10.3711 38.4156V36.0194C10.3711 35.5943 10.7206 35.2078 11.1868 35.2078H13.595C14.0223 35.2078 14.4107 35.5557 14.4107 36.0194H15.2264C15.1876 35.1305 14.4884 34.4349 13.6339 34.4349H11.2256ZM19.1884 40.0001H20.0041V34.4349H19.1884V40.0001ZM24.9372 35.2078H29.7537V34.3962H24.1603V39.9615H29.7537V39.1499H24.9372V37.5653H28.938V36.7924H24.9372V35.2078ZM39.3091 34.4349H38.4934V38.6474L34.4925 34.4349H33.6768V40.0001H34.4925V35.7103L38.4934 40.0001H39.3091V34.4349ZM44.9413 34.4349C44.0479 34.4735 43.3487 35.1692 43.3487 36.0194V38.4156C43.3487 39.3045 44.0868 40.0001 44.9413 40.0001H47.3496C48.2429 40.0001 48.9421 39.2658 48.9421 38.4156H48.1264C48.1264 38.8407 47.7768 39.2272 47.3107 39.2272H44.9025C44.4752 39.2272 44.0867 38.8793 44.0867 38.4156V36.0194C44.0867 35.5943 44.4363 35.2078 44.9025 35.2078H47.3107C47.738 35.2078 48.1264 35.5557 48.1264 36.0194H48.9421C48.9033 35.1305 48.2041 34.4349 47.3496 34.4349H44.9413ZM53.7198 35.2078H58.5363V34.3962H52.943V39.9615H58.5363V39.1499H53.7198V37.5653H57.7206V36.7924H53.7198V35.2078Z" fill="white"/>
</svg>
