<svg width="24" height="24" viewBox="0 0 24 24" fill="none" xmlns="http://www.w3.org/2000/svg">
<path d="M8.96038 14.2499C8.22636 14.25 7.50881 14.0323 6.89847 13.6246C6.28814 13.2168 5.81243 12.6372 5.53153 11.9591C5.25062 11.2809 5.17713 10.5347 5.32035 9.81481C5.46357 9.0949 5.81706 8.43363 6.33613 7.91463L10.1656 4.08663C10.8616 3.39064 11.8056 2.99963 12.7899 2.99963C13.7742 2.99963 14.7181 3.39064 15.4141 4.08663C16.1101 4.78263 16.5011 5.7266 16.5011 6.71088C16.5011 7.69517 16.1101 8.63914 15.4141 9.33513L14.9994 9.74913L13.9381 8.68938L14.3559 8.27163C14.769 7.8565 15.0007 7.29447 15.0002 6.70876C14.9996 6.12306 14.7668 5.56148 14.3529 5.14713C13.9316 4.74505 13.3715 4.5207 12.7891 4.5207C12.2067 4.5207 11.6467 4.74505 11.2254 5.14713L7.39738 8.97513C7.19188 9.18041 7.02885 9.42417 6.91762 9.69249C6.80639 9.96081 6.74914 10.2484 6.74914 10.5389C6.74914 10.8293 6.80639 11.117 6.91762 11.3853C7.02885 11.6536 7.19188 11.8974 7.39738 12.1026C7.81871 12.5047 8.37873 12.7291 8.96113 12.7291C9.54353 12.7291 10.1036 12.5047 10.5249 12.1026L11.5854 13.1631C11.2414 13.5088 10.8323 13.7828 10.3817 13.9694C9.93113 14.1559 9.44804 14.2513 8.96038 14.2499Z" fill="white"/>
<path d="M14.9604 12.7499C14.2264 12.75 13.5088 12.5323 12.8985 12.1246C12.2881 11.7168 11.8124 11.1372 11.5315 10.4591C11.2506 9.78093 11.1771 9.03472 11.3204 8.31481C11.4636 7.5949 11.8171 6.93363 12.3361 6.41463L12.7509 6.00063L13.8114 7.06188L13.3974 7.47588C12.9828 7.89052 12.7498 8.45288 12.7498 9.03926C12.7498 9.62563 12.9828 10.188 13.3974 10.6026C13.8187 11.0047 14.3787 11.2291 14.9611 11.2291C15.5435 11.2291 16.1036 11.0047 16.5249 10.6026L20.3536 6.77388C20.7675 6.35898 20.9999 5.79689 20.9999 5.21088C20.9999 4.62487 20.7675 4.06278 20.3536 3.64788C19.9323 3.2458 19.3723 3.02145 18.7899 3.02145C18.2075 3.02145 17.6475 3.2458 17.2261 3.64788L16.1656 2.58663C16.8616 1.89064 17.8056 1.49963 18.7899 1.49963C19.7742 1.49963 20.7181 1.89064 21.4141 2.58663C22.1101 3.28263 22.5011 4.2266 22.5011 5.21088C22.5011 6.19517 22.1101 7.13914 21.4141 7.83513L17.5861 11.6624C17.2422 12.0081 16.8331 12.2823 16.3825 12.4689C15.9319 12.6556 15.4488 12.7511 14.9611 12.7499H14.9604Z" fill="white"/>
<path d="M18 22.4999H3C2.6023 22.4995 2.221 22.3413 1.93978 22.0601C1.65856 21.7789 1.5004 21.3976 1.5 20.9999V5.99988C1.5004 5.60218 1.65856 5.22088 1.93978 4.93966C2.221 4.65844 2.6023 4.50028 3 4.49988H6V5.99988H3V20.9999H18V13.4999H19.5V20.9999C19.4996 21.3976 19.3414 21.7789 19.0602 22.0601C18.779 22.3413 18.3977 22.4995 18 22.4999Z" fill="white"/>
</svg>
