<svg width="24" height="24" viewBox="0 0 24 24" fill="none" xmlns="http://www.w3.org/2000/svg">
<path d="M22.2649 2.4279C21.9802 2.19106 21.6366 2.03585 21.2707 1.9788C20.9047 1.92174 20.5302 1.96498 20.1869 2.1039L2.2659 9.3389C1.88276 9.4966 1.55662 9.76707 1.33075 10.1144C1.10488 10.4618 0.989964 10.8696 1.00125 11.2838C1.01253 11.6979 1.14947 12.0989 1.39392 12.4334C1.63836 12.768 1.97874 13.0203 2.3699 13.1569L5.9949 14.4179L8.0149 21.0999C8.04259 21.1891 8.08265 21.2739 8.1339 21.3519C8.1419 21.3639 8.1529 21.3719 8.1609 21.3849C8.21983 21.4669 8.29099 21.5394 8.3719 21.5999C8.39449 21.6176 8.41784 21.6343 8.4419 21.6499C8.53662 21.7128 8.6415 21.7588 8.7519 21.7859L8.7649 21.7869L8.7709 21.7899C8.83773 21.8033 8.90574 21.81 8.9739 21.8099L8.9919 21.8069C9.09432 21.8052 9.19585 21.7877 9.2929 21.7549C9.3159 21.7469 9.3349 21.7349 9.3569 21.7249C9.4295 21.6951 9.49831 21.6569 9.5619 21.6109C9.61255 21.5679 9.66322 21.5249 9.7139 21.4819L12.4159 18.4989L16.4459 21.6209C16.8006 21.8972 17.2373 22.0474 17.6869 22.0479C18.1581 22.0474 18.6149 21.8848 18.9805 21.5875C19.3461 21.2901 19.5983 20.8761 19.6949 20.4149L22.9579 4.3979C23.0317 4.03756 23.0062 3.66394 22.8842 3.31696C22.7621 2.96998 22.5481 2.66268 22.2649 2.4279ZM9.3699 14.7359C9.23141 14.8741 9.13679 15.0501 9.0979 15.2419L8.7879 16.7459L8.0039 14.1529L12.0689 12.0359L9.3699 14.7359ZM17.6719 20.0399L12.9089 16.3499C12.7096 16.1961 12.4597 16.1231 12.2089 16.1453C11.9582 16.1675 11.725 16.2834 11.5559 16.4699L10.6899 17.4249L10.9959 15.9379L18.0789 8.8549C18.247 8.68582 18.3491 8.46226 18.3669 8.22452C18.3846 7.98679 18.3169 7.75053 18.1759 7.55833C18.0348 7.36613 17.8297 7.23064 17.5976 7.17629C17.3655 7.12194 17.1216 7.1523 16.9099 7.2619L6.7449 12.5539L3.0199 11.1909L20.9989 3.9999L17.6719 20.0399Z" fill="white"/>
</svg>
