<svg width="24" height="24" viewBox="0 0 24 24" fill="none" xmlns="http://www.w3.org/2000/svg">
<path d="M22.2644 2.42802C21.9797 2.19118 21.6361 2.03597 21.2702 1.97892C20.9043 1.92186 20.5297 1.9651 20.1864 2.10403L2.26542 9.33902C1.88227 9.49672 1.55613 9.76719 1.33026 10.1145C1.10439 10.4619 0.989476 10.8697 1.00076 11.2839C1.01204 11.6981 1.14899 12.099 1.39343 12.4336C1.63787 12.7681 1.97825 13.0204 2.36942 13.157L5.99442 14.418L8.01442 21.1C8.0421 21.1892 8.08216 21.274 8.13342 21.352C8.14142 21.364 8.15242 21.372 8.16042 21.385C8.21935 21.4671 8.29051 21.5396 8.37142 21.6C8.394 21.6177 8.41736 21.6344 8.44142 21.65C8.53614 21.7129 8.64101 21.7589 8.75142 21.786L8.76442 21.787L8.77042 21.79C8.83725 21.8034 8.90525 21.8101 8.97342 21.81L8.99142 21.807C9.09383 21.8053 9.19536 21.7878 9.29242 21.755C9.31542 21.747 9.33442 21.735 9.35642 21.725C9.42901 21.6953 9.49783 21.657 9.56142 21.611C9.61207 21.568 9.66273 21.525 9.71342 21.482L12.4154 18.499L16.4454 21.621C16.8001 21.8973 17.2368 22.0476 17.6864 22.048C18.1577 22.0475 18.6144 21.8849 18.98 21.5876C19.3456 21.2903 19.5978 20.8763 19.6944 20.415L22.9574 4.39802C23.0312 4.03768 23.0057 3.66406 22.8837 3.31708C22.7616 2.9701 22.5476 2.6628 22.2644 2.42802ZM9.36942 14.736C9.23092 14.8742 9.1363 15.0503 9.09741 15.242L8.78742 16.746L8.00342 14.153L12.0684 12.036L9.36942 14.736ZM17.6714 20.04L12.9084 16.35C12.7091 16.1962 12.4592 16.1232 12.2084 16.1454C11.9577 16.1677 11.7245 16.2836 11.5554 16.47L10.6894 17.425L10.9954 15.938L18.0784 8.85502C18.2465 8.68594 18.3486 8.46238 18.3664 8.22465C18.3841 7.98691 18.3164 7.75065 18.1754 7.55845C18.0343 7.36625 17.8293 7.23077 17.5971 7.17641C17.365 7.12206 17.1211 7.15242 16.9094 7.26202L6.74442 12.554L3.01942 11.191L20.9984 4.00003L17.6714 20.04Z" fill="#242424"/>
</svg>
